<?xml version="1.0" encoding="UTF-8"?>
<svg id="Layer_1" data-name="Layer 1" xmlns="http://www.w3.org/2000/svg" viewBox="0 0 241.35 60">
  <defs>
    <style>
      .cls-1 {
        fill: #d3fe3e;
      }
    </style>
  </defs>
  <path class="cls-1" d="m142.22,51.29c-1.37,1.37-3.66,2.06-6.87,2.06s-5.84-1.03-7.9-3.09c-2.29-2.29-3.43-5.84-3.43-10.65h27.81c0-6.64-1.6-11.56-4.81-14.77-3.43-3.43-7.55-5.15-12.36-5.15s-9.16,1.6-12.36,4.81c-3.9,3.9-5.84,8.93-5.84,15.11s1.83,11.11,5.49,14.77c3.43,3.43,7.9,5.15,13.39,5.15s9.38-1.49,12.36-4.46c2.06-2.06,3.55-5.15,4.46-9.27h-7.55c0,2.06-.8,3.9-2.4,5.49Zm-14.77-23.01c1.83-1.83,4.12-2.75,6.87-2.75,2.97,0,5.26.8,6.87,2.4,1.83,1.83,2.75,3.9,2.75,6.18h-19.57c.46-2.29,1.49-4.23,3.09-5.84Z"/>
  <path class="cls-1" d="m186.82,50.95c-1.83,1.84-4.35,2.75-7.55,2.75-2.75,0-5.04-.91-6.87-2.75-2.52-2.52-3.78-6.06-3.78-10.65,0-4.81,1.37-8.58,4.12-11.33,1.83-1.83,4.12-2.75,6.87-2.75s4.81.69,6.18,2.06c1.6,1.6,2.52,3.32,2.75,5.15h7.55c-.46-3.66-1.95-6.75-4.46-9.27-2.75-2.75-6.87-4.12-12.36-4.12-5.04,0-9.27,1.72-12.71,5.15-3.66,3.66-5.49,8.58-5.49,14.77s2.06,10.99,6.18,15.11c3.2,3.21,7.21,4.81,12.02,4.81,5.72,0,10.07-1.49,13.05-4.46,2.97-2.97,4.58-6.87,4.81-11.68h-7.55c0,2.98-.92,5.38-2.75,7.21Z"/>
  <path class="cls-1" d="m237.88,23.13c-2.29-2.29-5.84-3.43-10.64-3.43s-8.82,2.52-12.71,7.55V.12H37.12v26.78L10.34.12H.38l23.35,23.35L.04,58.84h9.27l19.92-29.87,7.9,7.9v21.98h27.13c5.49,0,9.62-1.37,12.36-4.12,3.43-3.43,5.15-7.67,5.15-12.71,0-4.12-1.37-7.55-4.12-10.3-1.6-1.6-3.78-2.86-6.52-3.78,2.06-.69,3.78-1.72,5.15-3.09,2.52-2.52,3.78-5.61,3.78-9.27s-.81-6.49-2.44-8.93h20.25v52.2h7.9V6.65h101.9v52.2h6.87v-19.92c1.37-4.58,3.32-8.12,5.84-10.65,2.06-2.06,4.35-3.09,6.87-3.09,2.06,0,3.66.57,4.81,1.72,1.6,1.6,2.4,3.66,2.4,6.18v25.75h6.87v-27.47c0-3.2-1.15-5.95-3.43-8.24Zm-164.35,18.89c0,2.98-1.03,5.49-3.09,7.55-1.83,1.83-4.46,2.75-7.9,2.75h-17.51v-20.95h17.51c3.43,0,6.18,1.03,8.24,3.09,1.83,1.83,2.75,4.35,2.75,7.55Zm-4.12-33.31c1.83,1.83,2.75,4.01,2.75,6.52,0,2.98-.92,5.38-2.75,7.21-1.6,1.6-3.55,2.4-5.84,2.4h-18.54V6.65h19.23c2.06,0,3.78.69,5.15,2.06Z"/>
</svg>