<?xml version="1.0" encoding="utf-8"?>
<!-- Generator: Adobe Illustrator 27.3.1, SVG Export Plug-In . SVG Version: 6.00 Build 0)  -->
<svg version="1.1" id="Layer_1" xmlns="http://www.w3.org/2000/svg" xmlns:xlink="http://www.w3.org/1999/xlink" x="0px" y="0px"
	 viewBox="0 0 241.4 60" style="enable-background:new 0 0 241.4 60;" xml:space="preserve">
<style type="text/css">
	.st0{fill:#33658A;}
	.st1{fill:#D3FE3E;}
	.st2{fill:#8338EC;}
	.st3{fill:#FFFFFF;}
</style>
<g>
	<path class="st0" d="M142.2,51.3c-1.4,1.4-3.7,2.1-6.9,2.1c-3.2,0-5.8-1-7.9-3.1c-2.3-2.3-3.4-5.8-3.4-10.6h27.8
		c0-6.6-1.6-11.6-4.8-14.8c-3.4-3.4-7.6-5.2-12.4-5.2c-5,0-9.2,1.6-12.4,4.8c-3.9,3.9-5.8,8.9-5.8,15.1s1.8,11.1,5.5,14.8
		c3.4,3.4,7.9,5.2,13.4,5.2c5.3,0,9.4-1.5,12.4-4.5c2.1-2.1,3.5-5.2,4.5-9.3h-7.6C144.6,47.9,143.8,49.7,142.2,51.3z M127.5,28.3
		c1.8-1.8,4.1-2.7,6.9-2.7c3,0,5.3,0.8,6.9,2.4c1.8,1.8,2.7,3.9,2.7,6.2h-19.6C124.8,31.8,125.9,29.9,127.5,28.3z"/>
	<path class="st0" d="M186.8,50.9c-1.8,1.8-4.4,2.7-7.6,2.7c-2.7,0-5-0.9-6.9-2.7c-2.5-2.5-3.8-6.1-3.8-10.6c0-4.8,1.4-8.6,4.1-11.3
		c1.8-1.8,4.1-2.7,6.9-2.7c2.7,0,4.8,0.7,6.2,2.1c1.6,1.6,2.5,3.3,2.7,5.2h7.6c-0.5-3.7-1.9-6.7-4.5-9.3c-2.7-2.7-6.9-4.1-12.4-4.1
		c-5,0-9.3,1.7-12.7,5.2c-3.7,3.7-5.5,8.6-5.5,14.8c0,6,2.1,11,6.2,15.1c3.2,3.2,7.2,4.8,12,4.8c5.7,0,10.1-1.5,13-4.5
		c3-3,4.6-6.9,4.8-11.7h-7.6C189.6,46.7,188.6,49.1,186.8,50.9z"/>
	<path class="st0" d="M237.9,23.1c-2.3-2.3-5.8-3.4-10.6-3.4c-4.6,0-8.8,2.5-12.7,7.6V0.1h-2.6h-4.3H64.6h-1.8H45h-7.9v26.8
		L10.3,0.1h-10l23.4,23.4L0,58.8h9.3L29.2,29l7.9,7.9v22H45h19.2c5.5,0,9.6-1.4,12.4-4.1c3.4-3.4,5.2-7.7,5.2-12.7
		c0-4.1-1.4-7.6-4.1-10.3c-1.6-1.6-3.8-2.9-6.5-3.8c2.1-0.7,3.8-1.7,5.2-3.1c2.5-2.5,3.8-5.6,3.8-9.3c0-3.5-0.8-6.5-2.4-8.9h20.2
		v52.2h7.9V6.6h101.9v52.2h6.9V38.9c1.4-4.6,3.3-8.1,5.8-10.6c2.1-2.1,4.3-3.1,6.9-3.1c2.1,0,3.7,0.6,4.8,1.7
		c1.6,1.6,2.4,3.7,2.4,6.2v25.8h6.9V31.4C241.3,28.2,240.2,25.4,237.9,23.1z M73.5,42c0,3-1,5.5-3.1,7.6c-1.8,1.8-4.5,2.7-7.9,2.7
		H45V31.4h17.5c3.4,0,6.2,1,8.2,3.1C72.6,36.3,73.5,38.8,73.5,42z M69.4,8.7c1.8,1.8,2.7,4,2.7,6.5c0,3-0.9,5.4-2.7,7.2
		c-1.6,1.6-3.6,2.4-5.8,2.4H45V6.6h17.8h1.4C66.3,6.6,68,7.3,69.4,8.7z"/>
</g>
</svg>
